<svg xmlns:dc="http://purl.org/dc/elements/1.1/" xmlns:cc="http://creativecommons.org/ns#" xmlns:rdf="http://www.w3.org/1999/02/22-rdf-syntax-ns#" xmlns:svg="http://www.w3.org/2000/svg" xmlns="http://www.w3.org/2000/svg" xmlns:sodipodi="http://sodipodi.sourceforge.net/DTD/sodipodi-0.dtd" xmlns:inkscape="http://www.inkscape.org/namespaces/inkscape" viewBox="0 0 80 80" version="1.1" x="0px" y="0px"><path style="" d="m 29.465723,24.372336 -6.912498,-0.228397 c -0.478692,-0.01578 -0.885574,0.622593 -0.912296,1.431405 l -0.747661,22.629087 c -0.02675,0.808783 0.337136,1.472673 0.815819,1.488482 l 6.912497,0.22837 c 0.47869,0.01578 0.885575,-0.622594 0.912296,-1.431406 l 0.747669,-22.629059 c 0.02675,-0.808809 -0.337134,-1.472673 -0.815826,-1.488479 z" fill="#000000" fill-opacity="1" stroke="none"></path><path style="" d="m 20.877205,17.977685 c 0,3.025291 2.452474,5.477757 5.477762,5.477757 3.025285,0 5.477759,-2.452466 5.477759,-5.477757 0,-3.02529 -2.452474,-5.477756 -5.477759,-5.477756 -3.025288,0 -5.477762,2.452466 -5.477762,5.477756 z" fill="#000000" fill-opacity="1" stroke="none"></path><path d="m 29.070848,24.53451 c 0.546061,-0.264863 1.196597,-0.03933 1.461519,0.506663 l 4.217292,8.692812 0.02167,0.04468 c 0.40639,0.89684 0.02515,1.958805 -0.866138,2.391146 -0.891174,0.432341 -1.961301,0.07464 -2.414171,-0.799697 -0.0075,-0.01337 -0.01472,-0.02997 -0.02167,-0.04468 l -4.217292,-8.692812 c -0.264916,-0.546072 -0.03941,-1.196617 0.506666,-1.461532 l 1.312123,-0.63658 z" style="" fill="#000000" fill-opacity="1" stroke="none"></path><path d="m 32.073911,33.704927 c 0.660805,-0.729252 1.779087,-0.799865 2.525854,-0.171304 0.01819,0.01391 0.03157,0.02959 0.05014,0.04404 l 6.975473,6.320728 c 0.449675,0.407574 0.482914,1.095551 0.07609,1.544983 l -0.979266,1.080705 c -0.407549,0.44975 -1.095212,0.483639 -1.544975,0.07606 l -6.97547,-6.320719 c -0.01605,-0.01552 -0.03395,-0.02839 -0.05014,-0.04404 -0.698873,-0.681374 -0.738541,-1.801174 -0.07769,-2.530448 z" style="" fill="#000000" fill-opacity="1" stroke="none"></path><path d="m 27.456605,46.605154 c 0.51845,-0.315639 1.201616,-0.161352 1.517163,0.357072 l 4.911184,8.069312 0.0089,0.01525 c 0.836601,1.391927 0.408626,3.185195 -0.966531,4.022149 -1.375161,0.836985 -3.17877,0.401937 -4.030795,-0.980678 -0.0026,-0.0051 -0.0058,-0.01012 -0.0089,-0.01525 l -4.91118,-8.069311 c -0.315531,-0.518465 -0.152764,-1.187467 0.365676,-1.503026 l 3.11448,-1.895548 z" style="" fill="#000000" fill-opacity="1" stroke="none"></path><path d="m 30.41542,54.700599 c 1.440614,-0.730897 3.197533,-0.144149 3.935821,1.311042 l 6.380906,12.577191 c 0.274605,0.541264 0.04591,1.2032 -0.495328,1.477817 l -3.251465,1.649571 c -0.541245,0.274631 -1.195704,0.0607 -1.470294,-0.480545 L 29.134155,58.658484 C 28.395863,57.20329 28.974783,55.43148 30.41542,54.700599 z" style="" fill="#000000" fill-opacity="1" stroke="none"></path><path style="" d="m 25.868054,49.054629 c 0.502936,0.339732 0.64757,1.024979 0.307826,1.527913 l -5.287839,7.827667 -0.0094,0.01445 c -0.916537,1.340645 -2.724995,1.699101 -4.058977,0.797969 -1.333986,-0.901156 -1.690271,-2.721973 -0.78869,-4.072712 0.0029,-0.0029 0.0062,-0.0086 0.0094,-0.01445 l 5.287831,-7.827692 c 0.339755,-0.502911 1.01571,-0.633835 1.518633,-0.294179 l 3.021208,2.040925 z" fill="#000000" fill-opacity="1" stroke="none"></path><path style="" d="m 19.923074,55.119759 c 1.210023,1.070252 1.311516,2.919771 0.230431,4.142041 L 10.80988,69.825796 c -0.402111,0.454627 -1.1017598,0.485773 -1.5563678,0.08366 L 6.5225072,67.493948 C 6.0678722,67.091847 6.0257532,66.404617 6.4279582,65.949982 L 15.771579,55.385984 c 1.081094,-1.222268 2.941571,-1.336483 4.151599,-0.266227 z" fill="#000000" fill-opacity="1" stroke="none"></path><path style="" d="m 17.120609,35.318399 c -0.843311,-0.507248 -1.128937,-1.590766 -0.656707,-2.444996 0.01009,-0.02065 0.02294,-0.0367 0.03351,-0.0577 l 4.851907,-8.066459 c 0.31289,-0.520031 0.981434,-0.685731 1.50108,-0.373515 l 1.249731,0.751702 c 0.520097,0.312844 0.686392,0.980983 0.373531,1.501092 l -4.851923,8.066438 c -0.01211,0.01879 -0.02128,0.03881 -0.03351,0.0577 -0.533304,0.817483 -1.624275,1.073033 -2.46762,0.56574 z" fill="#000000" fill-opacity="1" stroke="none"></path><path style="" d="m 15.406659,44.575219 c -0.598106,-0.103141 -0.995177,-0.665609 -0.892016,-1.26375 l 1.641781,-9.521289 0.0085,-0.049 c 0.192702,-0.965571 1.121674,-1.606004 2.097788,-1.437713 0.976103,0.16832 1.636958,1.082876 1.495216,2.057189 -0.0021,0.01576 -0.0057,0.03301 -0.0085,0.04898 l -1.64178,9.521286 c -0.103139,0.598119 -0.665629,0.995164 -1.263745,0.892013 L 15.40666,44.575222 z" fill="#000000" fill-opacity="1" stroke="none"></path><path style="text-indent:0;text-transform:none;direction:ltr;block-progression:tb;baseline-shift:baseline;color:#000000;enable-background:accumulate;" d="m 51.25,50.28125 -0.1875,0.1875 -0.6875,0.75 L 50.25,51.375 50.4375,51.5625 91.09375,88.09375 92.125,87 51.40625,50.4375 z m 0,0.6875 21.5,19.28125 -0.3125,0.375 -21.5,-19.25 z" transform="scale(0.8,0.8)" fill="#000000" fill-opacity="1" stroke="none" marker="none" visibility="visible" display="inline" overflow="visible"></path><path transform="matrix(0.74936743,0,0,0.74936743,0.36369963,2.8165051)" style="" d="m 95.931602,89.763499 c 0.03011,-0.825976 0.707562,-1.470539 1.513144,-1.439671 0.805581,0.03087 1.434229,0.725475 1.404124,1.551451 -0.03011,0.825976 -0.707563,1.470539 -1.513144,1.439672 -0.784385,-0.03005 -1.405143,-0.690757 -1.405143,-1.495562" fill="#000000" fill-opacity="1" stroke="none"></path></svg>