<svg xmlns="http://www.w3.org/2000/svg" xmlns:xlink="http://www.w3.org/1999/xlink" version="1.1" x="0px" y="0px" viewBox="0 0 100 125" enable-background="new 0 0 100 100" xml:space="preserve"><g display="none"><rect x="-1083.066" y="-257.496" display="inline" fill="#000000" stroke="#000000" stroke-width="4" stroke-miterlimit="10" width="1220.125" height="751.558"/></g><g><path fill="none" d="M41.427,41.975c0-4.376-3.561-7.937-7.938-7.937s-7.938,3.561-7.938,7.937c0,4.377,3.561,7.938,7.938,7.938   S41.427,46.352,41.427,41.975z"/><path fill="none" d="M41.568,71.349c-1.684-1.748-2.61-4.037-2.61-6.446c0-2.388,0.914-4.664,2.575-6.406l0.203-0.214l-0.089-0.282   c-0.797-2.522-3.104-4.217-5.739-4.217h-4.836c-3.322,0-6.025,2.703-6.025,6.025v24.756l0.198,0.15   c3.837,2.901,8.099,5.085,12.667,6.493l0.647,0.199V78.164c0-2.375,1.078-4.59,2.958-6.076l0.433-0.342L41.568,71.349z"/><path fill="none" d="M51.015,73.841l-0.115-0.022l-0.113,0.032c-1.68,0.474-3.371,0.474-5.051-0.001l-0.115-0.033l-0.117,0.023   c-0.422,0.083-0.789,0.207-1.121,0.375c-1.515,0.762-2.455,2.275-2.455,3.949V92.22l0.407,0.077   c2.548,0.483,5.127,0.728,7.667,0.728c1.375,0,2.771-0.07,4.148-0.209l0.45-0.045V78.164C54.6,76.053,53.092,74.235,51.015,73.841z   "/><path fill="none" d="M21.679,81.715V59.81c0-3.352,1.818-6.475,4.746-8.151l0.642-0.367l-0.579-0.459   c-2.734-2.166-4.303-5.395-4.303-8.857c0-6.233,5.071-11.305,11.305-11.305s11.305,5.071,11.305,11.305   c0,3.463-1.568,6.692-4.303,8.858l-0.579,0.459l0.642,0.367c1.721,0.984,3.064,2.456,3.888,4.255l0.193,0.421l0.434-0.16   c1.203-0.441,2.457-0.64,3.687-0.554l0.658,0.043v-3.083c0-4.017,2.223-7.674,5.801-9.544l0.706-0.369l-0.639-0.475   c-3.353-2.497-5.275-6.304-5.275-10.447c0-7.186,5.847-13.032,13.032-13.032S76.07,24.561,76.07,31.747   c0,4.143-1.923,7.95-5.275,10.446l-0.639,0.476l0.706,0.369c3.583,1.87,5.809,5.527,5.809,9.544v30.617l0.835-0.752   c8.66-7.805,13.627-18.941,13.627-30.554c0-22.681-18.452-41.133-41.132-41.133c-22.681,0-41.133,18.452-41.133,41.133   c0,10.91,4.246,21.195,11.956,28.961L21.679,81.715z"/><path fill="none" d="M65.892,45.181h-5.711c-4.081,0-7.4,3.32-7.4,7.4v4.196l0.243,0.146c2.804,1.68,4.546,4.738,4.546,7.98   c0,2.406-0.926,4.693-2.605,6.44l-0.38,0.395l0.428,0.342c1.878,1.501,2.955,3.718,2.955,6.083v14.085l0.604-0.128   c5.214-1.11,10.097-3.197,14.513-6.203l0.219-0.149V52.582C73.303,48.501,69.979,45.181,65.892,45.181z"/><path fill="none" d="M48.264,70.841c3.274,0,5.938-2.664,5.938-5.938c0-3.274-2.664-5.938-5.938-5.938s-5.938,2.664-5.938,5.938   C42.325,68.177,44.989,70.841,48.264,70.841z"/><path fill="none" d="M72.703,31.747c0-5.329-4.336-9.665-9.665-9.665s-9.665,4.336-9.665,9.665s4.336,9.665,9.665,9.665   S72.703,37.076,72.703,31.747z"/><path d="M50.001,96.393c24.537,0,44.499-19.962,44.499-44.5s-19.962-44.5-44.499-44.5C25.463,7.393,5.5,27.355,5.5,51.893   S25.463,96.393,50.001,96.393z M38.56,78.164v13.245l-0.647-0.199c-4.568-1.408-8.83-3.592-12.667-6.493l-0.198-0.15V59.81   c0-3.322,2.703-6.025,6.025-6.025h4.836c2.636,0,4.942,1.695,5.739,4.217l0.089,0.282l-0.203,0.214   c-1.661,1.743-2.575,4.018-2.575,6.406c0,2.409,0.927,4.698,2.61,6.446l0.382,0.397l-0.433,0.342   C39.638,73.574,38.56,75.789,38.56,78.164z M25.552,41.975c0-4.376,3.561-7.937,7.938-7.937s7.938,3.561,7.938,7.937   c0,4.377-3.561,7.938-7.938,7.938S25.552,46.352,25.552,41.975z M54.6,92.771l-0.45,0.045c-1.378,0.139-2.773,0.209-4.148,0.209   c-2.54,0-5.119-0.245-7.667-0.728l-0.407-0.077V78.164c0-1.674,0.94-3.187,2.455-3.949c0.332-0.168,0.699-0.292,1.121-0.375   l0.117-0.023l0.115,0.033c1.68,0.475,3.371,0.476,5.051,0.001l0.113-0.032l0.115,0.022c2.077,0.394,3.585,2.212,3.585,4.323V92.771   z M42.325,64.903c0-3.274,2.664-5.938,5.938-5.938s5.938,2.664,5.938,5.938c0,3.274-2.664,5.938-5.938,5.938   S42.325,68.177,42.325,64.903z M73.303,85.769l-0.219,0.149c-4.416,3.006-9.299,5.093-14.513,6.203l-0.604,0.128V78.164   c0-2.365-1.077-4.582-2.955-6.083l-0.428-0.342l0.38-0.395c1.68-1.748,2.605-4.035,2.605-6.44c0-3.243-1.742-6.301-4.546-7.98   l-0.243-0.146v-4.196c0-4.081,3.319-7.4,7.4-7.4h5.711c4.087,0,7.411,3.32,7.411,7.4V85.769z M53.373,31.747   c0-5.329,4.336-9.665,9.665-9.665s9.665,4.336,9.665,9.665s-4.336,9.665-9.665,9.665S53.373,37.076,53.373,31.747z M50.001,10.76   c22.68,0,41.132,18.452,41.132,41.133c0,11.612-4.967,22.749-13.627,30.554l-0.835,0.752V52.582c0-4.017-2.226-7.674-5.809-9.544   l-0.706-0.369l0.639-0.476c3.353-2.497,5.275-6.304,5.275-10.446c0-7.186-5.847-13.032-13.032-13.032s-13.032,5.846-13.032,13.032   c0,4.143,1.923,7.95,5.275,10.447l0.639,0.475l-0.706,0.369c-3.578,1.87-5.801,5.527-5.801,9.544v3.083l-0.658-0.043   c-1.229-0.085-2.483,0.113-3.687,0.554l-0.434,0.16l-0.193-0.421c-0.823-1.799-2.167-3.271-3.888-4.255l-0.642-0.367l0.579-0.459   c2.734-2.166,4.303-5.395,4.303-8.858c0-6.233-5.071-11.305-11.305-11.305s-11.305,5.071-11.305,11.305   c0,3.463,1.568,6.691,4.303,8.857l0.579,0.459l-0.642,0.367c-2.928,1.676-4.746,4.8-4.746,8.151v21.905l-0.854-0.861   c-7.71-7.766-11.956-18.052-11.956-28.961C8.868,29.212,27.32,10.76,50.001,10.76z"/></g></svg>
