<svg xmlns="http://www.w3.org/2000/svg" xmlns:xlink="http://www.w3.org/1999/xlink" version="1.1" x="0px" y="0px" viewBox="0 0 100 109.375" style="enable-background:new 0 0 100 87.5;" xml:space="preserve"><path d="M93.3,30.4L73.1,42.1c0,0,0,0,0,0c0,0,0,0,0,0l0,0c-4.1-8.5-12.7-14.4-22.8-14.4c-1.1,0-2.1,0.1-3.2,0.2V7.1H6.7v40.5h19  c-0.4,1.7-0.6,3.5-0.6,5.4c0,13.9,11.3,25.2,25.2,25.2c9.4,0,17.6-5.1,21.9-12.7l21.1,12V30.4z M71.3,54.5c0,0.1,0,0.2,0,0.3  c-0.1,1-0.2,2-0.5,3c0,0,0,0.1,0,0.1c-0.1,0.5-0.3,1-0.4,1.5c0,0,0,0,0,0L61,54.1l9.8-5.7c0,0.1,0,0.2,0.1,0.3c0,0.1,0,0.2,0,0.3  c0.1,0.3,0.1,0.5,0.1,0.8c0,0.1,0,0.2,0,0.3c0,0.2,0.1,0.5,0.1,0.7c0,0.2,0,0.3,0,0.5c0,0.2,0,0.4,0,0.6c0,0.4,0,0.7,0,1.1  c0,0,0,0,0,0C71.3,53.5,71.3,54,71.3,54.5z M10.9,11.3h7.3l-7.3,7.2V11.3z M10.9,24.5l13.2-13.2h8L10.9,32.4V24.5z M10.9,43.3v-4.9  l27.2-27.1h4.9v3.5L13.7,43.3H10.9z M19.7,43.3l23.2-22.5v7.9l-0.2,0.2c-7.1,2.3-12.9,7.6-15.7,14.4H19.7z M50.3,74  c-11.6,0-21-9.4-21-21c0-1.9,0.2-3.7,0.7-5.4h17.1V32.2c1-0.2,2.1-0.2,3.2-0.2c8.5,0,15.8,5,19.1,12.3l-16.9,9.9l0,0l16.1,9.2  C65,69.7,58.1,74,50.3,74z"/></svg>
