<svg xmlns="http://www.w3.org/2000/svg" xmlns:xlink="http://www.w3.org/1999/xlink" version="1.1" x="0px" y="0px" viewBox="0 0 100 125" enable-background="new 0 0 100 100" xml:space="preserve"><g><path d="M38.62,44.077c3.048,0,5.535-2.479,5.535-5.534c0-3.062-2.487-5.542-5.535-5.542c-3.065,0-5.548,2.48-5.548,5.542   C33.072,41.598,35.554,44.077,38.62,44.077z"/><path d="M29.157,80.134H18.92c-0.689-0.091-5.709-0.893-7.613-4.955c-2.29-4.885-3.415-11.178-3.169-17.72   c0.043-1.142-0.847-2.102-1.988-2.145c-1.122-0.055-2.102,0.847-2.145,1.988c-0.271,7.189,0.992,14.16,3.557,19.631   c3.052,6.511,10.72,7.297,11.046,7.327c0.063,0.006,0.126,0.009,0.191,0.009h10.358c1.142,0,2.068-0.926,2.068-2.067   S30.298,80.134,29.157,80.134z"/><path d="M15.126,37.923c0-3.685-2.988-6.667-6.657-6.667c-3.686,0-6.672,2.982-6.672,6.667c0,3.674,2.986,6.656,6.672,6.656   C12.138,44.58,15.126,41.598,15.126,37.923z"/><path d="M93.618,55.314c-1.142,0.043-2.031,1.003-1.988,2.145c0.246,6.542-0.879,12.835-3.169,17.72   c-1.903,4.062-6.924,4.864-7.613,4.955H70.61c-1.142,0-2.067,0.927-2.067,2.068s0.926,2.067,2.067,2.067h10.358   c0.064,0,0.128-0.003,0.191-0.009c0.325-0.03,7.994-0.816,11.046-7.327c2.564-5.471,3.827-12.441,3.557-19.631   C95.72,56.161,94.739,55.26,93.618,55.314z"/><path d="M91.299,31.257c-3.669,0-6.657,2.982-6.657,6.667c0,3.674,2.988,6.656,6.657,6.656c3.686,0,6.672-2.982,6.672-6.656   C97.971,34.239,94.984,31.257,91.299,31.257z"/><path d="M79.304,76.517c2.642,0,4.442-2.12,4.442-2.12c4.243-3.553,9.912-33.359-3.46-30.62c0,0-2.903,0.517-4.283,6.87   c-0.361,1.085-0.956,3.327-1.588,6.092c-0.111-0.014-0.222-0.034-0.338-0.034H58.803c-1.554,0-2.812,1.259-2.812,2.812   c0,1.374,0.988,2.515,2.291,2.76H41.486c1.303-0.245,2.292-1.386,2.292-2.76c0-1.554-1.259-2.812-2.812-2.812H25.69   c-0.116,0-0.227,0.021-0.338,0.034c-0.632-2.766-1.227-5.007-1.587-6.092c-1.38-6.353-4.284-6.87-4.284-6.87   c-13.373-2.739-7.704,27.067-3.46,30.62c0,0,1.801,2.12,4.442,2.12h14.837l-0.117,0.32v18.384c0,2.129,1.36,4.065,3.907,4.065   c2.269,0,3.609-1.768,3.609-3.889c0,0-0.007-23.336-0.007-23.381c0-2.485-2.015-4.501-4.5-4.501H27.396   c-0.077-0.526-0.159-1.059-0.245-1.593h45.465c-0.086,0.534-0.168,1.066-0.244,1.593H61.574c-2.484,0-4.5,2.016-4.5,4.501   c0,0.045-0.007,23.381-0.007,23.381c0,2.121,1.341,3.889,3.609,3.889c2.547,0,3.907-1.937,3.907-4.065V76.837l-0.117-0.32H79.304z"/><path d="M48.466,53.134v-1.471c0-3.25-2.635-5.883-5.883-5.883h-7.941c-3.25,0-5.883,2.633-5.883,5.883v1.471H48.466z"/><path d="M61.161,44.077c3.05,0,5.535-2.479,5.535-5.534c0-3.062-2.485-5.542-5.535-5.542c-3.063,0-5.548,2.48-5.548,5.542   C55.613,41.598,58.098,44.077,61.161,44.077z"/><path d="M71.009,53.134v-1.471c0-3.25-2.633-5.883-5.884-5.883h-7.941c-3.249,0-5.882,2.633-5.882,5.883v1.471H71.009z"/><path d="M49.884,30.169c-7.855,0-14.246-6.391-14.246-14.246c0-7.855,6.391-14.246,14.246-14.246S64.13,8.068,64.13,15.923   C64.13,23.778,57.739,30.169,49.884,30.169L49.884,30.169z M49.884,4.434c-6.335,0-11.489,5.153-11.489,11.489   s5.153,11.489,11.489,11.489c6.336,0,11.489-5.154,11.489-11.489S56.22,4.434,49.884,4.434L49.884,4.434z"/><path d="M55.386,23.14c-0.338,0-0.674-0.123-0.94-0.372l-6.183-5.772c-0.526-0.491-0.585-1.307-0.134-1.87l4.631-5.772   c0.478-0.593,1.343-0.687,1.938-0.213c0.594,0.477,0.689,1.345,0.213,1.938l-3.832,4.775l5.248,4.9   c0.556,0.52,0.585,1.392,0.065,1.948C56.122,22.994,55.755,23.14,55.386,23.14L55.386,23.14z"/></g></svg>
