<svg xmlns="http://www.w3.org/2000/svg" xmlns:xlink="http://www.w3.org/1999/xlink" version="1.1" x="0px" y="0px" viewBox="0 0 24 30" enable-background="new 0 0 24 24" xml:space="preserve"><g><path d="M20.442,2.669h-4.776c-0.165-0.428-0.569-0.731-0.977-0.734c-0.309-0.067-0.634-0.155-0.815-0.217   C13.757,0.786,12.961,0.063,12,0.063c-0.962,0-1.758,0.723-1.874,1.654C9.948,1.779,9.639,1.865,9.395,1.925   c-0.489,0-0.9,0.312-1.063,0.744H3.558c-0.631,0-1.145,0.514-1.145,1.145v18.979c0,0.631,0.514,1.145,1.145,1.145h16.885   c0.631,0,1.145-0.514,1.145-1.145v-0.744c0,0,0-0.002,0-0.002s0-0.002,0-0.002V3.813C21.587,3.183,21.073,2.669,20.442,2.669z    M18.926,17.954v2.604c0,0.189-0.154,0.344-0.344,0.344h-1.583H7.146H5.418c-0.189,0-0.344-0.154-0.344-0.344V5.674   c0-0.189,0.154-0.344,0.344-0.344h2.913c0.164,0.432,0.574,0.744,1.063,0.744h5.21c0.489,0,0.9-0.312,1.063-0.744h2.914   c0.189,0,0.344,0.154,0.344,0.344V17.954z M9.479,2.716c1.216-0.265,1.433-0.43,1.433-0.763c0-0.601,0.488-1.089,1.088-1.089   s1.088,0.488,1.088,1.089c0,0.333,0.217,0.498,1.517,0.772c0.189,0,0.344,0.154,0.344,0.344v1.86c0,0.189-0.154,0.344-0.344,0.344   h-5.21c-0.189,0-0.344-0.154-0.344-0.344v-1.86C9.051,2.88,9.205,2.726,9.479,2.716z M20.786,22.792   c0,0.189-0.154,0.344-0.344,0.344H3.558c-0.189,0-0.344-0.154-0.344-0.344V3.813c0-0.189,0.154-0.344,0.344-0.344H8.25v1.06H5.418   c-0.631,0-1.145,0.514-1.145,1.145v14.885c0,0.631,0.514,1.145,1.145,1.145h1.728h9.854h1.583c0.631,0,1.145-0.514,1.145-1.145   v-2.604V5.674c0-0.631-0.514-1.145-1.145-1.145h-2.833V3.47h4.693c0.189,0,0.344,0.154,0.344,0.344v18.229c0,0,0,0.002,0,0.002   s0,0.002,0,0.002V22.792z"/><path d="M6.755,11.653c0.17,0.179,0.396,0.277,0.637,0.277c0.238,0,0.465-0.099,0.64-0.281l1.834-1.957   c0.151-0.161,0.143-0.414-0.019-0.565c-0.161-0.15-0.414-0.143-0.565,0.019l-1.834,1.957l0.292,0.273l-0.402-0.271L6.55,10.264   c-0.151-0.16-0.404-0.169-0.565-0.019c-0.161,0.151-0.17,0.404-0.019,0.565L6.755,11.653z"/><path d="M9.282,11.797l-1.834,1.957l0.292,0.273l-0.402-0.271l-0.787-0.841c-0.152-0.161-0.403-0.169-0.565-0.019   c-0.161,0.151-0.17,0.404-0.019,0.565l0.789,0.843c0.17,0.179,0.396,0.277,0.637,0.277c0.238,0,0.465-0.099,0.64-0.281l1.834-1.957   c0.151-0.161,0.143-0.414-0.019-0.565C9.687,11.627,9.435,11.636,9.282,11.797z"/><path d="M9.282,14.449l-1.834,1.957L7.74,16.68l-0.402-0.271l-0.787-0.841c-0.152-0.161-0.403-0.169-0.565-0.019   c-0.161,0.151-0.17,0.404-0.019,0.565l0.789,0.843c0.17,0.179,0.396,0.277,0.637,0.277c0.238,0,0.465-0.099,0.64-0.281l1.834-1.957   c0.151-0.161,0.143-0.414-0.019-0.565C9.687,14.279,9.435,14.288,9.282,14.449z"/><path d="M17.742,15.175h-6.324c-0.221,0-0.4,0.18-0.4,0.4s0.18,0.4,0.4,0.4h6.324c0.221,0,0.4-0.18,0.4-0.4   S17.963,15.175,17.742,15.175z"/><path d="M17.742,12.727h-6.324c-0.221,0-0.4,0.18-0.4,0.4s0.18,0.4,0.4,0.4h6.324c0.221,0,0.4-0.18,0.4-0.4   S17.963,12.727,17.742,12.727z"/><path d="M17.742,10.277h-6.324c-0.221,0-0.4,0.18-0.4,0.4s0.18,0.4,0.4,0.4h6.324c0.221,0,0.4-0.18,0.4-0.4   S17.963,10.277,17.742,10.277z"/></g></svg>
